<?xml version="1.0" encoding="utf-8"?>
<!-- Generator: Adobe Illustrator 28.2.0, SVG Export Plug-In . SVG Version: 6.00 Build 0)  -->
<svg version="1.1" id="Layer_1" xmlns="http://www.w3.org/2000/svg" xmlns:xlink="http://www.w3.org/1999/xlink" x="0px" y="0px"
	 viewBox="0 0 345.333 302.542" enable-background="new 0 0 345.333 302.542" xml:space="preserve">
<path d="M11.134,126.1c1.69-6.024,5.738-9.927,10.9-13.279c15.913-10.333,31.626-20.972,47.418-31.49
	c0.877-0.584,1.717-1.26,2.666-1.692c2.383-1.086,4.634-0.832,6.15,1.445c1.472,2.211,1.15,4.431-0.837,6.256
	c-0.77,0.707-1.69,1.255-2.567,1.839c-16.585,11.042-33.212,22.02-49.706,33.196c-1.852,1.255-3.503,3.428-4.254,5.53
	c-0.992,2.78,0.366,5.428,2.804,7.159c2.781,1.975,5.745,1.902,8.578,0.042c6.785-4.454,13.541-8.951,20.298-13.447
	c38.791-25.81,77.597-51.599,116.335-77.489c3.111-2.079,5.563-2.011,8.614,0.026c44.627,29.791,89.306,59.506,133.974,89.236
	c1.14,0.758,2.261,1.565,3.473,2.189c3.271,1.684,7.262,0.728,9.329-2.147c2.224-3.093,1.809-7.11-1.079-9.723
	c-0.854-0.773-1.85-1.396-2.814-2.038c-46.942-31.258-93.886-62.512-140.832-93.763c-5.54-3.688-7.228-3.674-12.847,0.066
	c-23.958,15.944-47.914,31.891-71.876,47.83c-0.875,0.582-1.754,1.189-2.706,1.619c-2.388,1.079-4.41,0.356-5.778-1.727
	c-1.379-2.1-1.081-4.235,0.738-6.014c0.669-0.655,1.512-1.139,2.301-1.664c24.306-16.185,48.612-32.369,72.925-48.543
	c7.727-5.141,13.972-5.156,21.713-0.008c25.63,17.046,51.246,34.111,76.869,51.166c0.954,0.635,1.926,1.243,3.227,2.082
	c0.13-1.053,0.301-1.81,0.304-2.568c0.023-5.8-0.016-11.601,0.02-17.4c0.048-7.797,4.416-12.206,12.118-12.26
	c4.115-0.028,8.23-0.04,12.344,0.004c7.212,0.077,11.633,4.397,11.677,11.647c0.081,13.498,0.127,26.998-0.047,40.495
	c-0.041,3.179,0.817,5.126,3.589,6.876c8.11,5.12,16.088,10.459,23.953,15.95c5.586,3.9,7.96,9.573,6.885,16.266
	c-1.114,6.942-5.234,11.655-12.111,13.565c-4.78,1.328-9.408,0.765-13.645-2.006c-2.637-1.724-5.265-3.461-8.596-5.651
	c0,1.776,0,2.954,0,4.132c0,40.18,0.006,80.359-0.006,120.539c-0.002,8.002-3.574,13.367-10.152,15.325
	c-1.303,0.388-2.652,0.622-3.979,0.927c-12.239,0-24.478,0-36.716,0c-1.418-0.993-3.329-1.687-4.154-3.041
	c-1.868-3.067,0.462-6.574,4.419-6.73c4.845-0.191,9.702-0.072,14.553-0.076c6.75-0.006,13.501,0.021,20.251-0.01
	c4.81-0.022,6.255-1.439,6.257-6.216c0.014-42.91-0.005-85.819,0.05-128.729c0.003-1.95-0.732-3.005-2.291-4.041
	c-37.835-25.131-75.645-50.3-113.424-75.515c-1.636-1.092-2.751-1.156-4.441-0.028c-37.687,25.165-75.411,50.275-113.171,75.33
	c-1.875,1.244-2.637,2.52-2.633,4.811c0.072,42.488,0.051,84.976,0.056,127.464c0.001,5.808,1.159,6.93,7.132,6.931
	c54.953,0.003,109.907,0.002,164.86,0.005c1.16,0,2.324-0.026,3.478,0.07c2.469,0.205,4.247,1.366,4.597,3.961
	c0.356,2.647-0.769,4.481-3.396,5.296c-0.393,0.122-0.756,0.344-1.133,0.52c-56.974,0-113.947,0-170.921,0
	c-11.6-3.139-14.141-6.507-14.141-18.748c0-39.296,0-78.593,0-117.889c0-1.211,0-2.421,0-4.249
	c-3.405,2.221-6.137,4.147-9.005,5.847c-9.35,5.54-20.95,1.342-24.658-8.849c-0.281-0.771-0.625-1.519-0.94-2.278
	C11.134,130.318,11.134,128.209,11.134,126.1z M291.113,90.74c0-13.358-0.01-25.871,0.011-38.385c0.003-1.801-0.913-2.37-2.57-2.352
	c-3.896,0.041-7.794,0.085-11.687-0.017c-2.25-0.059-2.917,0.971-2.903,3.055c0.057,8.104-0.012,16.209,0.07,24.312
	c0.009,0.914,0.417,2.203,1.091,2.672C280.187,83.552,285.362,86.917,291.113,90.74z"/>
<path d="M173.937,161.132c10.044,0.255,17.96,4.574,23.481,12.808c2.672,3.986,4.917,8.385,6.583,12.883
	c1.719,4.64,4.269,8.311,8.139,11.319c4.943,3.841,8.599,8.662,10.034,14.913c2.128,9.273,0.77,17.763-6.581,24.313
	c-7.39,6.584-16.046,7.946-25.376,4.625c-2.079-0.74-4.093-1.67-6.109-2.575c-7.359-3.303-14.709-3.344-22,0.133
	c-6.699,3.194-13.51,5.33-21.045,3.364c-18.013-4.699-23.877-26.719-10.807-41.027c3.399-3.721,7.128-7.147,10.804-10.604
	c1.862-1.752,4.055-1.762,6.038-0.168c1.986,1.596,2.522,3.871,1.13,5.926c-1.574,2.325-3.621,4.352-5.595,6.379
	c-2.054,2.109-4.588,3.82-6.344,6.135c-3.758,4.953-4.64,10.622-2.263,16.42c2.125,5.185,6.58,8.05,11.91,7.972
	c4.04-0.059,8.26-1.447,12.038-3.08c10.187-4.404,20.187-4.605,30.279,0.031c1.531,0.703,3.068,1.403,4.64,2.005
	c6.95,2.663,14.365,0.779,18.212-4.589c3.734-5.211,3.228-13.802-1.277-19.171c-1.412-1.683-3.046-3.24-4.794-4.571
	c-4.601-3.504-7.585-8.004-9.559-13.427c-1.394-3.83-3.122-7.645-5.341-11.05c-7.988-12.256-24.256-12.728-33.144-1.15
	c-0.321,0.418-0.603,0.868-0.949,1.264c-1.979,2.265-4.571,2.65-6.725,1.015c-2.04-1.549-2.551-4.12-0.989-6.468
	c4.845-7.284,11.441-11.987,20.257-13.208C170.352,161.302,172.151,161.265,173.937,161.132z"/>
<path d="M167.919,137.767c-0.74,2.312-1.519,6.867-3.577,10.743c-4.752,8.952-14.82,11.405-23.605,6.311
	c-12.329-7.149-17.314-26.1-10.097-38.39c5.003-8.52,14.618-11.276,23.176-6.291C163.472,115.764,167.151,124.852,167.919,137.767z
	 M158.28,137.25c-0.346-8.323-2.463-14.336-8.337-18.379c-4.367-3.005-8.74-1.895-11.287,2.542
	c-4.439,7.735-0.656,21.139,7.158,25.358c4.02,2.17,8.162,1.211,10.265-2.848C157.349,141.474,157.846,138.626,158.28,137.25z"/>
<path d="M178.436,137.588c0.947-13.428,4.894-22.916,15.618-28.167c7.932-3.884,16.421-1.177,21.231,6.26
	c8.088,12.507,2.699,32.712-10.558,39.578c-8.548,4.428-18.008,1.935-22.538-6.565C180.077,144.731,179.248,140.085,178.436,137.588
	z M188.177,135.949c0.096,1.053,0.061,2.346,0.353,3.562c0.86,3.587,2.197,7.001,6.188,8.077c3.953,1.066,7.03-0.909,9.454-3.752
	c5.073-5.951,6.791-12.825,4.423-20.341c-2.101-6.669-8.048-8.272-13.394-3.737C190.311,123.907,188.337,129.447,188.177,135.949z"
	/>
<path d="M134.558,174.89c-0.057,14.192-12.887,21.819-25.332,15.059c-9.914-5.385-16.042-18.087-13.914-28.84
	c1.926-9.733,10.947-15.221,20.479-12.46C126.274,151.686,134.604,163.333,134.558,174.89z M125.067,174.492
	c-0.602-6.459-3.375-11.89-9.203-15.475c-2.518-1.549-5.297-2.304-8.077-0.719c-2.81,1.601-3.526,4.447-3.376,7.367
	c0.345,6.745,3.345,12.096,9.142,15.696c2.51,1.558,5.263,2.402,8.056,0.748C124.374,180.472,124.905,177.661,125.067,174.492z"/>
<path d="M211.824,173.03c0.688-8.606,4.956-16.957,13.994-22.295c12.047-7.115,24.736-0.303,25.733,13.613
	c0.77,10.751-7.042,22.991-17.107,26.803C222.612,195.632,211.814,187.8,211.824,173.03z M221.359,173.976
	c0.015,7.159,4.085,10.303,9.626,8.314c6.491-2.33,11.944-11.495,10.908-18.334c-0.89-5.875-5.395-8.228-10.667-5.336
	C224.882,162.101,221.905,167.778,221.359,173.976z"/>
</svg>
