<?xml version="1.0" encoding="utf-8"?>
<!-- Generator: Adobe Illustrator 28.2.0, SVG Export Plug-In . SVG Version: 6.00 Build 0)  -->
<svg version="1.1" id="Layer_1" xmlns="http://www.w3.org/2000/svg" xmlns:xlink="http://www.w3.org/1999/xlink" x="0px" y="0px"
	 viewBox="0 0 242.208 384" enable-background="new 0 0 242.208 384" xml:space="preserve">
<path d="M129.401,14.194c7.05,1.405,14.19,2.466,21.131,4.287c14.16,3.715,24.305,12.558,31.093,25.474
	c8.359,15.905,12.598,33.172,17.305,50.35c4.648,16.959,1.409,33.079-3.538,49.169c-6.213,20.205-15.39,39.115-25.718,57.474
	c-1.545,2.746-1.352,4.501,0.52,6.879c20.334,25.833,40.536,51.77,60.864,77.608c4.64,5.898,4.807,5.778,1.397,12.427
	c-10.222,19.933-20.444,39.866-30.684,59.79c-3.72,7.238-7.941,7.637-12.776,1.166c-20.948-28.035-41.87-56.09-62.803-84.136
	c-0.664-0.89-1.353-1.762-2.247-2.925c-0.848,1.048-1.607,1.928-2.304,2.856c-21.313,28.383-42.607,56.78-63.941,85.147
	c-4.067,5.408-7.894,5.068-10.983-0.939c-11.04-21.471-22.036-42.964-33.058-64.445c-0.216-0.421-0.535-0.788-0.805-1.18
	c0-0.997,0-1.995,0-2.992c0.786-0.944,1.598-1.868,2.355-2.835c20.953-26.735,41.875-53.494,62.893-80.178
	c1.711-2.172,1.712-3.713,0.501-6.213c-7.468-15.427-15.373-30.698-21.787-46.567c-8.238-20.379-13.281-41.348-7.419-63.702
	c4.525-17.253,9.023-34.39,18.409-49.805c7.563-12.422,18.21-20.583,32.433-23.802c5.192-1.175,10.473-1.951,15.714-2.908
	C120.436,14.194,124.919,14.194,129.401,14.194z M82.935,78.301c-10.431,5.343-18.57,13.41-23.904,24.254
	c-0.787,1.6-1.241,3.547-1.227,5.329c0.106,13.727,3.273,26.891,7.738,39.774c8.529,24.609,20.946,47.298,34.526,69.384
	c21.95,35.699,46.956,69.245,72.338,102.521c7.386,9.683,14.837,19.318,22.517,29.312c0.789-1.447,1.396-2.503,1.952-3.586
	c8.411-16.385,16.76-32.803,25.285-49.128c1.233-2.362,0.957-3.776-0.648-5.824c-19.894-25.385-40.135-50.517-59.361-76.403
	c-23.846-32.106-45.849-65.49-63.797-101.344C92.796,101.491,88.137,89.942,82.935,78.301z M85.968,214.94
	c-0.361,0.407-0.706,0.756-1.006,1.139c-19.546,24.987-39.053,50.005-58.7,74.913c-1.537,1.948-1.052,3.164-0.149,4.917
	c8.545,16.575,17.033,33.179,25.547,49.77c0.498,0.97,1.077,1.897,1.801,3.164c5.98-7.794,11.81-15.226,17.464-22.79
	c15.046-20.131,30.019-40.317,45.007-60.49c0.999-1.345,2.204-2.45,0.795-4.538C106.439,245.782,96.291,230.444,85.968,214.94z
	 M161.013,195.669c12.808-23.927,23.28-47.335,28.668-73.046c3.657-17.452-2.74-29.416-15.918-39.302
	c-1.887-1.415-3.909-2.657-5.922-3.892c-0.791-0.486-1.728-0.734-2.671-1.12c-2.377,5.914-4.25,11.754-6.985,17.157
	c-8.537,16.864-17.428,33.548-26.08,50.354c-0.631,1.227-1.135,3.316-0.534,4.262C141.109,165.096,150.836,179.989,161.013,195.669z
	 M183.698,77.197c-3.005-10.143-6.686-20.513-12.211-30.181c-5.749-10.06-14.169-16.465-25.341-19.408
	c-12.883-3.394-25.816-3.546-38.823-0.898c-9.02,1.836-17.732,4.524-24.03,11.73c-9.901,11.329-14.458,25.272-18.702,38.843
	C104.308,52.412,143.83,52.518,183.698,77.197z M124.18,138.341c12.31-21.074,23.586-41.715,31.023-64.61
	c-20.87-5.908-41.221-5.897-62.057,0.014C100.849,96.555,111.83,117.329,124.18,138.341z"/>
</svg>
