<?xml version="1.0" encoding="utf-8"?>
<!-- Generator: Adobe Illustrator 28.2.0, SVG Export Plug-In . SVG Version: 6.00 Build 0)  -->
<svg version="1.1" id="Layer_1" xmlns="http://www.w3.org/2000/svg" xmlns:xlink="http://www.w3.org/1999/xlink" x="0px" y="0px"
	 viewBox="0 0 281.792 307.75" enable-background="new 0 0 281.792 307.75" xml:space="preserve">
<path d="M150.146,9.979c4.888,0.555,9.79,1.008,14.662,1.682c23.997,3.32,46.698,10.357,66.721,24.41
	c25.936,18.203,39.457,43.221,40.06,75.001c0.226,11.929-0.198,23.829-2.659,35.58c-3.206,15.312-10.903,28.206-21.342,39.561
	c-4.911,5.342-10.095,10.456-15.418,15.391c-3.187,2.955-4.755,6.439-4.803,10.581c-0.045,3.896,0.319,7.8,0.562,11.696
	c0.203,3.252-0.912,5.082-3.424,5.428c-2.637,0.363-4.696-1.243-4.854-4.479c-0.275-5.643-0.494-11.327-0.119-16.952
	c0.305-4.572,2.813-8.288,6.106-11.596c7.155-7.186,14.449-14.288,21.007-22.002c10.099-11.88,14.83-26.074,15.908-41.532
	c0.805-11.532,1.372-23.072-0.467-34.564c-3.756-23.462-15.968-41.589-35.198-55.142c-16.187-11.408-34.415-17.907-53.73-21.533
	c-20.13-3.779-40.329-4.651-60.497-0.329c-20.538,4.401-38.806,13.115-52.555,29.5c-3.907,4.656-6.737,10.215-10.042,15.373
	c-0.348,0.544-0.531,1.191-0.85,1.756c-1.312,2.326-3.484,3.122-5.617,2.084c-2.141-1.041-2.958-3.234-1.907-5.668
	c3.426-7.936,8.125-15.069,13.974-21.419c14.524-15.767,32.828-24.793,53.458-29.383c6.517-1.45,13.233-2.006,19.855-2.985
	c0.726-0.107,1.439-0.305,2.159-0.46C137.473,9.979,143.81,9.979,150.146,9.979z"/>
<path d="M172.421,183.248c1.444,4.7,2.904,9.394,4.328,14.1c2.28,7.533-1.99,12.647-9.781,11.634
	c-3.967-0.516-7.91-1.223-11.863-1.85c-5.542-0.879-9.23-3.955-11.319-9.185c-3.898-9.76-7.926-19.469-11.91-29.195
	c-1.348-3.29-3.419-4.542-6.978-4.581c-9.276-0.102-16.458-4.075-21.496-11.879c-0.5-0.775-0.934-1.593-1.176-2.01
	c-4.441,1.205-8.626,2.928-12.948,3.399c-11.199,1.22-20.356-3.044-26.826-12.195c-6.542-9.253-7.224-19.331-2.5-29.642
	c0.772-1.686,0.804-3.015,0.203-4.717c-6.14-17.397,2.908-36.22,20.333-42.282c1.561-0.543,2.4-1.284,2.992-2.846
	c5.43-14.325,20.49-21.751,35.18-17.349c1.619,0.485,2.555,0.128,3.926-0.828c3.863-2.694,7.885-5.207,12.049-7.405
	c2.492-1.315,4.961-0.178,5.854,2.009c0.967,2.368-0.089,4.608-2.905,5.723c-4.687,1.856-8.711,4.604-11.932,8.488
	c-1.734,2.091-3.676,2.447-6.192,1.328c-12.779-5.686-25.415,0.346-29.011,13.88c-0.643,2.42-2.026,3.565-4.315,4.129
	c-16.143,3.977-23.93,20.029-16.904,35.06c1.226,2.622,0.534,4.527-0.804,6.725c-5.1,8.383-3.668,19.086,3.339,25.893
	c6.992,6.792,17.916,7.893,26.006,2.608c0.533-0.348,1.007-0.785,1.701-1.331c-0.868-0.611-1.602-1.127-2.335-1.643
	c-9.293-6.546-9.853-20.098-1.128-27.278c2.737-2.252,5.13-2.364,6.907-0.324c1.726,1.983,1.205,4.438-1.42,6.694
	c-5.375,4.62-4.055,12.708,2.629,15.063c3.086,1.088,4.116,2.882,4.105,6.028c-0.037,10.14,8.822,17.634,18.817,16.009
	c2.518-0.409,4.393,0.055,6.191,2.066c4.547,5.087,11.534,5.463,16.738,0.942c2.248-1.953,4.231-2.117,6.797-0.66
	c10.287,5.839,21.852,1.885,26.673-9.073c0.96-2.182,2.339-3.982,4.751-3.298c1.396,0.396,2.576,2.056,3.493,3.394
	c0.382,0.558-0.028,1.811-0.333,2.655c-0.532,1.471-1.262,2.87-2.018,4.538c7.757,5.43,16.149,6.923,25.144,4.115
	c17.243-5.383,24.902-25.487,15.775-41.088c-2.482-4.242-2.361-4.773,1.125-8.392c6.205-6.443,8.262-14.144,5.815-22.668
	c-2.448-8.528-8.244-14.055-16.997-15.994c-3.119-0.691-4.696-2.212-5.707-5.222c-5.065-15.087-23.134-20.478-35.842-10.827
	c-3.915,2.973-5.552,2.71-8.405-1.37c-3.527-5.044-8.168-8.61-14.014-10.583c-0.441-0.149-0.882-0.301-1.31-0.48
	c-2.488-1.041-3.567-3.094-2.797-5.304c0.795-2.281,2.821-3.321,5.397-2.593c6.334,1.788,11.708,5.182,16.218,9.957
	c0.63,0.667,1.198,1.392,1.85,2.154c5.782-3.466,11.766-5.293,18.284-4.925c12.778,0.721,21.926,6.964,27.473,18.426
	c0.827,1.71,1.711,2.729,3.61,3.353c20.731,6.814,28.273,31.917,14.794,49.202c-1.192,1.529-1.388,2.603-0.558,4.405
	c7.975,17.322,1.263,37.742-15.441,47.017c-1.71,0.95-2.439,1.977-2.784,3.954c-3.435,19.698-26.551,28.06-42.03,15.401
	c-1.539-1.259-3.933-1.472-5.93-2.17C172.813,182.69,172.617,182.969,172.421,183.248z M141.868,170.831
	c0-0.412-0.083-0.105,0.012,0.129c3.346,8.255,6.648,16.53,10.14,24.723c0.483,1.133,1.794,2.415,2.938,2.674
	c4.487,1.018,9.06,1.654,14.098,2.517c-3.409-11.056-6.491-21.635-10.109-32.027c-0.439-1.26-3.953-2.409-5.725-2.049
	C149.413,167.571,145.811,169.362,141.868,170.831z M168.239,168.909c0.111,4.513,2.742,5.887,8.193,5.645
	c3.016-0.134,5.05,0.529,7.107,2.661c3.771,3.907,8.588,5.413,13.972,4.904c7.089-0.671,13.707-6.457,14.472-12.657
	c-9.908,1.386-19.006-0.65-27.266-6.329c-0.422-0.29-1.459-0.209-1.89,0.119C178.497,166.552,173.584,168.31,168.239,168.909z"/>
<path d="M27.447,194.132c1.911,2.23,3.856,4.592,5.902,6.864c2.608,2.896,2.533,4.96-0.26,7.63
	c-0.883,0.844-1.531,1.935-2.415,3.079c2.013,0.996,3.638,1.668,5.129,2.561c4.444,2.661,5.873,7.35,3.159,11.744
	c-5.092,8.244-0.47,17.824,7.181,21.168c6.795,2.969,13.759,2.804,20.846,1.856c6.274-0.84,12.544-1.712,18.822-2.517
	c15.145-1.941,26.859,4.025,35.245,16.289c4.009,5.863,7.021,12.447,10.123,18.88c2.689,5.576,5.071,7.02,10.981,5.496
	c26.571-6.849,53.141-13.702,79.708-20.568c6.537-1.689,8.294-5.038,6.077-11.382c-1.074-3.073-2.161-6.143-3.138-9.247
	c-0.87-2.761,0.092-4.91,2.401-5.722c2.444-0.859,4.552,0.309,5.578,3.181c1.126,3.152,2.166,6.335,3.274,9.494
	c3.56,10.148-0.919,18.836-11.31,21.569c-15.741,4.14-31.517,8.152-47.278,12.217c-11.258,2.904-22.515,5.814-33.777,8.705
	c-9.106,2.337-15.988-1.31-19.948-9.775c-3.1-6.626-6.392-13.278-10.528-19.279c-6.62-9.604-16.168-13.175-27.797-11.41
	c-7.911,1.201-15.872,2.098-23.829,2.963c-7.224,0.785-14.121-0.612-20.535-4.001c-11.574-6.116-15.724-18.975-10.035-30.722
	c0.235-0.486,0.413-1,0.652-1.584c-3.044-1.989-7.484-1.809-8.57-6.444c-0.898-3.832-0.135-7.157,2.017-10.543
	c-1.277-1.125-2.481-2.261-3.762-3.301c-4.654-3.779-4.369-11.159,0.546-14.104c2.126-1.274,3.728-3.42,5.996-5.577
	c-1.91-0.78-3.112-1.19-4.241-1.749c-2.489-1.234-5.179-2.227-7.362-3.881c-6.621-5.017-7.609-13.96-2.19-20.246
	c2.225-2.581,5.277-4.432,7.637-6.916c4.34-4.565,8.484-9.32,12.632-14.063c1.774-2.029,1.535-4.204,0.119-6.424
	c-1.5-2.352-2.931-4.757-4.24-7.22c-1.975-3.717-2.703-7.743-0.667-11.533c3.985-7.419,5.287-15.418,5.931-23.628
	c0.058-0.737,0.166-1.49,0.393-2.189c0.744-2.29,2.391-3.298,4.735-2.893c2.247,0.388,3.522,1.907,3.302,4.144
	c-0.817,8.317-0.921,16.847-5.206,24.373c-2.22,3.9-1.938,7.205,0.56,10.837c7.214,10.492,6.218,14.383-1.506,24.17
	c-3.147,3.988-7.073,7.372-10.73,10.943c-1.393,1.361-3.055,2.441-4.544,3.709c-5.212,4.44-4.506,9.306,1.764,12.051
	c1.872,0.819,3.87,1.363,5.706,2.25c5.83,2.818,7.461,8.358,3.758,13.669C31.817,189.837,29.23,192.164,27.447,194.132z"/>
<path d="M154.366,78.489c6.089-5.537,13.032-8.184,21.116-7.06c9.8,1.363,16.606,6.865,20.27,15.909
	c3.576,8.829,2.185,17.185-3.816,24.626c-1.688,2.094-3.665,3.968-5.612,5.837c-1.865,1.79-4.373,1.818-6.014,0.236
	c-1.705-1.643-1.64-4.228,0.221-6.225c1.46-1.566,3.072-2.997,4.467-4.617c6.378-7.404,5.425-17.552-2.178-23.773
	c-7.375-6.035-17.993-4.861-23.858,2.639c-0.516,0.66-0.953,1.393-1.533,1.988c-2.169,2.227-4.862,1.827-7.033-1.113
	c-4.278-5.791-9.979-8.306-17.048-7.046c-6.486,1.156-10.918,5.082-12.993,11.337c-2.045,6.163-0.922,11.787,3.746,16.473
	c9.269,9.306,18.61,18.54,27.846,27.879c1.803,1.823,3.143,1.793,4.867-0.034c2.876-3.047,5.887-5.968,8.874-8.909
	c2.373-2.337,4.73-2.53,6.594-0.612c1.856,1.91,1.621,4.192-0.76,6.603c-3.142,3.181-6.3,6.347-9.495,9.475
	c-4.765,4.663-10.626,4.668-15.354-0.029c-9.45-9.388-18.888-18.789-28.28-28.235c-9.455-9.508-9.836-24.148-0.96-34.076
	c9.081-10.158,24.253-11.51,34.774-3.094C152.856,77.188,153.481,77.741,154.366,78.489z"/>
</svg>
