<?xml version="1.0" encoding="utf-8"?>
<!-- Generator: Adobe Illustrator 28.2.0, SVG Export Plug-In . SVG Version: 6.00 Build 0)  -->
<svg version="1.1" id="Layer_1" xmlns="http://www.w3.org/2000/svg" xmlns:xlink="http://www.w3.org/1999/xlink" x="0px" y="0px"
	 viewBox="0 0 175 166" enable-background="new 0 0 175 166" xml:space="preserve">
<path d="M48.169,125.413c3.419,3.37,6.83,6.748,10.26,10.107c1.753,1.717,2.89,3.694,2.487,6.227
	c-0.799,5.028-6.557,7.22-10.56,4.051c-0.325-0.258-0.634-0.54-0.928-0.834c-7.187-7.182-14.391-14.348-21.546-21.562
	c-3.245-3.273-3.282-6.853-0.064-10.106c7.146-7.223,14.32-14.42,21.558-21.55c4.113-4.052,10.056-2.652,11.41,2.588
	c0.646,2.502-0.207,4.599-1.946,6.368c-2.92,2.969-5.884,5.894-8.822,8.845c-0.57,0.572-1.104,1.179-1.911,2.044
	c30.77,0,61.17,0,91.854,0c0-4.904,0-9.711,0-14.517c0-1.333-0.026-2.666,0.01-3.997c0.105-3.986,2.788-6.818,6.446-6.835
	c3.618-0.017,6.473,2.835,6.558,6.774c0.097,4.495,0.027,8.994,0.028,13.492c0.001,3.498,0.012,6.996-0.003,10.494
	c-0.023,5.368-2.417,7.793-7.758,7.795c-31.232,0.009-62.464,0.005-93.695,0.005c-0.991,0-1.982,0-2.973,0
	C48.439,125.004,48.304,125.209,48.169,125.413z"/>
<path d="M127.945,39.944c-3.489-3.423-6.98-6.843-10.465-10.27c-1.83-1.8-2.856-3.902-2.219-6.523
	c1.233-5.071,7.131-6.776,11.007-3.059c4.809,4.611,9.454,9.393,14.168,14.103c2.651,2.649,5.336,5.267,7.938,7.965
	c2.98,3.089,3.066,6.69,0.052,9.752c-7.305,7.419-14.669,14.781-22.091,22.082c-2.859,2.813-6.776,2.727-9.378,0.063
	c-2.61-2.672-2.547-6.464,0.3-9.369c3.477-3.548,7.051-7.002,10.984-10.893c-31.03,0-61.436,0-92.123,0c0,4.992,0,9.883,0,14.774
	c0,1.249,0.025,2.5-0.01,3.748c-0.112,3.987-2.8,6.817-6.459,6.83c-3.617,0.013-6.465-2.844-6.546-6.787
	c-0.094-4.579-0.027-9.162-0.028-13.743c-0.001-3.415-0.012-6.83,0.003-10.246c0.022-5.368,2.412-7.778,7.769-7.779
	c31.236-0.008,62.473-0.004,93.709-0.004c0.989,0,1.978,0,2.966,0C127.662,40.374,127.804,40.159,127.945,39.944z"/>
</svg>
